<svg xmlns="http://www.w3.org/2000/svg">

<symbol id="phone" viewBox="0 0 20 20">
  <title>Phone</title>
	<path d="M20 18.35V19a1 1 0 0 1-1 1h-2A17 17 0 0 1 0 3V1a1 1 0 0 1 1-1h4a1 1 0 0 1 1 1v4c0 .56-.31 1.31-.7 1.7L3.16 8.84c1.52 3.6 4.4 6.48 8 8l2.12-2.12c.4-.4 1.15-.71 1.7-.71H19a1 1 0 0 1 .99 1v3.35z"/>
</symbol>

<symbol id="email" viewBox="0 0 20 20">
  <title>Email</title>
	<path d="M18 2a2 2 0 0 1 2 2v12a2 2 0 0 1-2 2H2a2 2 0 0 1-2-2V4c0-1.1.9-2 2-2h16zm-4.37 9.1L20 16v-2l-5.12-3.9L20 6V4l-10 8L0 4v2l5.12 4.1L0 14v2l6.37-4.9L10 14l3.63-2.9z"/>
</symbol>

</svg>
